<svg xmlns="http://www.w3.org/2000/svg" width="256" height="256" viewBox="0 0 256 256"><circle cx="128" cy="128" r="128" fill="#ffffff"/><g transform="translate(46.481 47.780) scale(0.649552) translate(-836.5 -284.0)"><path fill-rule="nonzero" fill="#000000" d="M 892.515625 424.273438 L 924.578125 424.273438 C 924.578125 424.273438 940.9375 427.332031 950.960938 438.488281 L 950.960938 475.820312 C 950.960938 475.820312 937.359375 444.34375 892.515625 424.273438 "/><path fill-rule="nonzero" fill="#000000" d="M 966.78125 324.289062 L 966.78125 374.75 C 966.78125 374.75 977.230469 384.414062 986.386719 386.878906 L 1052.832031 386.878906 C 1052.832031 386.878906 1000.71875 375.835938 966.78125 324.289062 "/><path fill-rule="nonzero" fill="#000000" d="M 917.089844 397.144531 C 940.609375 387.851562 954.144531 377.738281 957.855469 374.757812 C 958.523438 374.21875 958.90625 373.382812 958.90625 372.484375 L 958.90625 287.105469 C 958.90625 283.976562 954.90625 283.152344 953.792969 286.042969 C 922.3125 367.789062 867.457031 398.257812 838.277344 409.058594 C 835.4375 410.109375 836.132812 414.601562 839.140625 414.601562 L 999.628906 414.601562 C 976.109375 423.890625 962.574219 434.007812 958.863281 436.988281 C 958.191406 437.527344 957.8125 438.363281 957.8125 439.261719 L 957.8125 548.777344 C 957.8125 552.074219 962.1875 552.730469 963.015625 549.554688 C 989.003906 450.210938 1049.65625 414.574219 1080.015625 402.660156 C 1082.796875 401.566406 1082.042969 397.144531 1079.082031 397.144531 Z M 917.089844 397.144531 "/></g></svg>